<svg width="152" height="46" viewBox="0 0 152 46" fill="none" xmlns="http://www.w3.org/2000/svg">
<rect width="152" height="46" rx="23" fill="#64CCC5"/>
<path d="M27.66 30.24C26.2733 30.24 25.0733 29.94 24.06 29.34C23.06 28.7267 22.2867 27.88 21.74 26.8C21.1933 25.7067 20.92 24.4467 20.92 23.02C20.92 21.58 21.1933 20.32 21.74 19.24C22.2867 18.1467 23.06 17.2933 24.06 16.68C25.0733 16.0667 26.2733 15.76 27.66 15.76C29.3 15.76 30.64 16.16 31.68 16.96C32.72 17.76 33.38 18.88 33.66 20.32H31.3C31.1133 19.5067 30.7133 18.86 30.1 18.38C29.4867 17.9 28.6667 17.66 27.64 17.66C26.24 17.66 25.1333 18.14 24.32 19.1C23.5067 20.0467 23.1 21.3533 23.1 23.02C23.1 24.6733 23.5067 25.9733 24.32 26.92C25.1333 27.8667 26.24 28.34 27.64 28.34C28.6667 28.34 29.4867 28.1133 30.1 27.66C30.7133 27.2067 31.1133 26.5867 31.3 25.8H33.66C33.38 27.1867 32.72 28.2733 31.68 29.06C30.64 29.8467 29.3 30.24 27.66 30.24ZM41.1503 30.24C40.2036 30.24 39.3503 30.0267 38.5903 29.6C37.8436 29.16 37.2503 28.5533 36.8103 27.78C36.3703 26.9933 36.1503 26.08 36.1503 25.04C36.1503 24 36.3703 23.0933 36.8103 22.32C37.2636 21.5333 37.8703 20.9267 38.6303 20.5C39.3903 20.06 40.237 19.84 41.1703 19.84C42.117 19.84 42.9636 20.06 43.7103 20.5C44.4703 20.9267 45.0703 21.5333 45.5103 22.32C45.9636 23.0933 46.1903 24 46.1903 25.04C46.1903 26.08 45.9636 26.9933 45.5103 27.78C45.0703 28.5533 44.4703 29.16 43.7103 29.6C42.9503 30.0267 42.097 30.24 41.1503 30.24ZM41.1503 28.42C41.657 28.42 42.1236 28.2933 42.5503 28.04C42.9903 27.7867 43.3436 27.4133 43.6103 26.92C43.877 26.4133 44.0103 25.7867 44.0103 25.04C44.0103 24.2933 43.877 23.6733 43.6103 23.18C43.357 22.6733 43.0103 22.2933 42.5703 22.04C42.1436 21.7867 41.677 21.66 41.1703 21.66C40.6636 21.66 40.1903 21.7867 39.7503 22.04C39.3236 22.2933 38.977 22.6733 38.7103 23.18C38.4436 23.6733 38.3103 24.2933 38.3103 25.04C38.3103 25.7867 38.4436 26.4133 38.7103 26.92C38.977 27.4133 39.3236 27.7867 39.7503 28.04C40.177 28.2933 40.6436 28.42 41.1503 28.42ZM49.083 30V20.08H50.963L51.123 21.82C51.4296 21.2067 51.8763 20.7267 52.463 20.38C53.063 20.02 53.7496 19.84 54.523 19.84C55.723 19.84 56.663 20.2133 57.343 20.96C58.0363 21.7067 58.383 22.82 58.383 24.3V30H56.283V24.52C56.283 22.6 55.4963 21.64 53.923 21.64C53.1363 21.64 52.483 21.92 51.963 22.48C51.4563 23.04 51.203 23.84 51.203 24.88V30H49.083ZM65.6398 30C64.6665 30 63.8932 29.7667 63.3198 29.3C62.7465 28.82 62.4598 27.9733 62.4598 26.76V21.86H60.7598V20.08H62.4598L62.7198 17.56H64.5798V20.08H67.3798V21.86H64.5798V26.76C64.5798 27.3067 64.6932 27.6867 64.9198 27.9C65.1598 28.1 65.5665 28.2 66.1398 28.2H67.2798V30H65.6398ZM73.5258 30.24C72.6858 30.24 71.9924 30.1 71.4458 29.82C70.8991 29.54 70.4924 29.1733 70.2258 28.72C69.9591 28.2533 69.8258 27.7467 69.8258 27.2C69.8258 26.24 70.1991 25.48 70.9458 24.92C71.6924 24.36 72.7591 24.08 74.1458 24.08H76.7458V23.9C76.7458 23.1267 76.5324 22.5467 76.1058 22.16C75.6924 21.7733 75.1524 21.58 74.4858 21.58C73.8991 21.58 73.3858 21.7267 72.9458 22.02C72.5191 22.3 72.2591 22.72 72.1658 23.28H70.0458C70.1124 22.56 70.3524 21.9467 70.7658 21.44C71.1924 20.92 71.7258 20.5267 72.3658 20.26C73.0191 19.98 73.7324 19.84 74.5058 19.84C75.8924 19.84 76.9658 20.2067 77.7258 20.94C78.4858 21.66 78.8658 22.6467 78.8658 23.9V30H77.0258L76.8458 28.3C76.5658 28.8467 76.1591 29.3067 75.6258 29.68C75.0924 30.0533 74.3924 30.24 73.5258 30.24ZM73.9458 28.52C74.5191 28.52 74.9991 28.3867 75.3858 28.12C75.7858 27.84 76.0924 27.4733 76.3058 27.02C76.5324 26.5667 76.6724 26.0667 76.7258 25.52H74.3658C73.5258 25.52 72.9258 25.6667 72.5658 25.96C72.2191 26.2533 72.0458 26.62 72.0458 27.06C72.0458 27.5133 72.2124 27.8733 72.5458 28.14C72.8924 28.3933 73.3591 28.52 73.9458 28.52ZM86.6377 30.24C85.6643 30.24 84.791 30.02 84.0177 29.58C83.2577 29.14 82.6577 28.5333 82.2177 27.76C81.791 26.9733 81.5777 26.0667 81.5777 25.04C81.5777 24.0133 81.791 23.1133 82.2177 22.34C82.6577 21.5533 83.2577 20.94 84.0177 20.5C84.791 20.06 85.6643 19.84 86.6377 19.84C87.8643 19.84 88.891 20.16 89.7177 20.8C90.5577 21.44 91.0977 22.3067 91.3377 23.4H89.1177C88.9843 22.8533 88.691 22.4267 88.2377 22.12C87.7843 21.8133 87.251 21.66 86.6377 21.66C86.1177 21.66 85.6377 21.7933 85.1977 22.06C84.7577 22.3133 84.4043 22.6933 84.1377 23.2C83.871 23.6933 83.7377 24.3067 83.7377 25.04C83.7377 25.7733 83.871 26.3933 84.1377 26.9C84.4043 27.3933 84.7577 27.7733 85.1977 28.04C85.6377 28.3067 86.1177 28.44 86.6377 28.44C87.251 28.44 87.7843 28.2867 88.2377 27.98C88.691 27.6733 88.9843 27.24 89.1177 26.68H91.3377C91.111 27.7467 90.5777 28.6067 89.7377 29.26C88.8977 29.9133 87.8643 30.24 86.6377 30.24ZM98.2016 30C97.2282 30 96.4549 29.7667 95.8816 29.3C95.3082 28.82 95.0216 27.9733 95.0216 26.76V21.86H93.3216V20.08H95.0216L95.2816 17.56H97.1416V20.08H99.9416V21.86H97.1416V26.76C97.1416 27.3067 97.2549 27.6867 97.4816 27.9C97.7216 28.1 98.1282 28.2 98.7016 28.2H99.8416V30H98.2016ZM113.687 30.24C112.687 30.24 111.78 30.0467 110.967 29.66C110.167 29.26 109.527 28.6533 109.047 27.84C108.58 27.0267 108.347 25.9933 108.347 24.74V16H110.467V24.76C110.467 25.9867 110.76 26.8867 111.347 27.46C111.933 28.0333 112.727 28.32 113.727 28.32C114.713 28.32 115.5 28.0333 116.087 27.46C116.673 26.8867 116.967 25.9867 116.967 24.76V16H119.087V24.74C119.087 25.9933 118.84 27.0267 118.347 27.84C117.867 28.6533 117.213 29.26 116.387 29.66C115.573 30.0467 114.673 30.24 113.687 30.24ZM126.286 30.24C125.033 30.24 123.999 29.9333 123.186 29.32C122.373 28.7067 121.906 27.8933 121.786 26.88H123.926C124.033 27.3333 124.286 27.7267 124.686 28.06C125.086 28.38 125.613 28.54 126.266 28.54C126.906 28.54 127.373 28.4067 127.666 28.14C127.959 27.8733 128.106 27.5667 128.106 27.22C128.106 26.7133 127.899 26.3733 127.486 26.2C127.086 26.0133 126.526 25.8467 125.806 25.7C125.246 25.58 124.686 25.42 124.126 25.22C123.579 25.02 123.119 24.74 122.746 24.38C122.386 24.0067 122.206 23.5067 122.206 22.88C122.206 22.0133 122.539 21.2933 123.206 20.72C123.873 20.1333 124.806 19.84 126.006 19.84C127.113 19.84 128.006 20.1067 128.686 20.64C129.379 21.1733 129.786 21.9267 129.906 22.9H127.866C127.799 22.4733 127.599 22.14 127.266 21.9C126.946 21.66 126.513 21.54 125.966 21.54C125.433 21.54 125.019 21.6533 124.726 21.88C124.433 22.0933 124.286 22.3733 124.286 22.72C124.286 23.0667 124.486 23.34 124.886 23.54C125.299 23.74 125.839 23.92 126.506 24.08C127.173 24.2267 127.786 24.4 128.346 24.6C128.919 24.7867 129.379 25.0667 129.726 25.44C130.073 25.8133 130.246 26.36 130.246 27.08C130.259 27.9867 129.906 28.74 129.186 29.34C128.479 29.94 127.513 30.24 126.286 30.24Z" fill="#FBFBFB"/>
</svg>
