<svg width="139" height="47" viewBox="0 0 139 47" fill="none" xmlns="http://www.w3.org/2000/svg">
<rect width="139" height="47" rx="23" fill="#FBFBFB"/>
<path d="M21.75 30.216C20.574 30.216 19.542 29.946 18.654 29.406C17.766 28.854 17.076 28.092 16.584 27.12C16.092 26.136 15.846 25.002 15.846 23.718C15.846 22.434 16.092 21.3 16.584 20.316C17.088 19.332 17.796 18.564 18.708 18.012C19.632 17.46 20.718 17.184 21.966 17.184C23.382 17.184 24.558 17.526 25.494 18.21C26.442 18.894 27.054 19.836 27.33 21.036H25.584C25.416 20.28 25.014 19.68 24.378 19.236C23.754 18.792 22.95 18.57 21.966 18.57C21.042 18.57 20.238 18.78 19.554 19.2C18.87 19.608 18.336 20.196 17.952 20.964C17.58 21.732 17.394 22.65 17.394 23.718C17.394 24.786 17.58 25.704 17.952 26.472C18.324 27.24 18.84 27.834 19.5 28.254C20.16 28.662 20.928 28.866 21.804 28.866C23.148 28.866 24.162 28.476 24.846 27.696C25.53 26.904 25.92 25.824 26.016 24.456H22.38V23.268H27.564V30H26.178L26.052 27.93C25.596 28.662 25.038 29.226 24.378 29.622C23.718 30.018 22.842 30.216 21.75 30.216ZM34.419 30.216C33.567 30.216 32.811 30.024 32.151 29.64C31.491 29.244 30.969 28.698 30.585 28.002C30.213 27.306 30.027 26.484 30.027 25.536C30.027 24.6 30.213 23.784 30.585 23.088C30.957 22.38 31.473 21.834 32.133 21.45C32.805 21.054 33.579 20.856 34.455 20.856C35.319 20.856 36.063 21.054 36.687 21.45C37.323 21.834 37.809 22.344 38.145 22.98C38.481 23.616 38.649 24.3 38.649 25.032C38.649 25.164 38.643 25.296 38.631 25.428C38.631 25.56 38.631 25.71 38.631 25.878H31.521C31.557 26.562 31.713 27.132 31.989 27.588C32.277 28.032 32.631 28.368 33.051 28.596C33.483 28.824 33.939 28.938 34.419 28.938C35.043 28.938 35.565 28.794 35.985 28.506C36.405 28.218 36.711 27.828 36.903 27.336H38.397C38.157 28.164 37.695 28.854 37.011 29.406C36.339 29.946 35.475 30.216 34.419 30.216ZM34.419 22.134C33.699 22.134 33.057 22.356 32.493 22.8C31.941 23.232 31.623 23.868 31.539 24.708H37.155C37.119 23.904 36.843 23.274 36.327 22.818C35.811 22.362 35.175 22.134 34.419 22.134ZM44.4223 30C43.6063 30 42.9643 29.802 42.4963 29.406C42.0283 29.01 41.7943 28.296 41.7943 27.264V22.35H40.2463V21.072H41.7943L41.9923 18.93H43.3063V21.072H45.9343V22.35H43.3063V27.264C43.3063 27.828 43.4203 28.212 43.6483 28.416C43.8763 28.608 44.2783 28.704 44.8543 28.704H45.7903V30H44.4223ZM54.6169 19.092C54.3169 19.092 54.0649 18.996 53.8609 18.804C53.6689 18.6 53.5729 18.348 53.5729 18.048C53.5729 17.76 53.6689 17.52 53.8609 17.328C54.0649 17.136 54.3169 17.04 54.6169 17.04C54.9049 17.04 55.1509 17.136 55.3549 17.328C55.5589 17.52 55.6609 17.76 55.6609 18.048C55.6609 18.348 55.5589 18.6 55.3549 18.804C55.1509 18.996 54.9049 19.092 54.6169 19.092ZM53.8609 30V21.072H55.3729V30H53.8609ZM58.5455 30V21.072H59.9135L60.0035 22.674C60.2915 22.11 60.7055 21.666 61.2455 21.342C61.7855 21.018 62.3975 20.856 63.0815 20.856C64.1375 20.856 64.9775 21.18 65.6015 21.828C66.2375 22.464 66.5555 23.448 66.5555 24.78V30H65.0435V24.942C65.0435 23.082 64.2755 22.152 62.7395 22.152C61.9715 22.152 61.3295 22.434 60.8135 22.998C60.3095 23.55 60.0575 24.342 60.0575 25.374V30H58.5455ZM78.218 30C77.402 30 76.76 29.802 76.292 29.406C75.824 29.01 75.59 28.296 75.59 27.264V22.35H74.042V21.072H75.59L75.788 18.93H77.102V21.072H79.73V22.35H77.102V27.264C77.102 27.828 77.216 28.212 77.444 28.416C77.672 28.608 78.074 28.704 78.65 28.704H79.586V30H78.218ZM86.0128 30.216C85.1728 30.216 84.4168 30.024 83.7448 29.64C83.0728 29.256 82.5388 28.716 82.1428 28.02C81.7588 27.312 81.5668 26.484 81.5668 25.536C81.5668 24.588 81.7648 23.766 82.1608 23.07C82.5568 22.362 83.0908 21.816 83.7628 21.432C84.4468 21.048 85.2088 20.856 86.0488 20.856C86.8888 20.856 87.6448 21.048 88.3168 21.432C88.9888 21.816 89.5168 22.362 89.9008 23.07C90.2968 23.766 90.4948 24.588 90.4948 25.536C90.4948 26.484 90.2968 27.312 89.9008 28.02C89.5048 28.716 88.9648 29.256 88.2808 29.64C87.6088 30.024 86.8528 30.216 86.0128 30.216ZM86.0128 28.92C86.5288 28.92 87.0088 28.794 87.4528 28.542C87.8968 28.29 88.2568 27.912 88.5328 27.408C88.8088 26.904 88.9468 26.28 88.9468 25.536C88.9468 24.792 88.8088 24.168 88.5328 23.664C88.2688 23.16 87.9148 22.782 87.4708 22.53C87.0268 22.278 86.5528 22.152 86.0488 22.152C85.5328 22.152 85.0528 22.278 84.6088 22.53C84.1648 22.782 83.8048 23.16 83.5288 23.664C83.2528 24.168 83.1148 24.792 83.1148 25.536C83.1148 26.28 83.2528 26.904 83.5288 27.408C83.8048 27.912 84.1588 28.29 84.5908 28.542C85.0348 28.794 85.5088 28.92 86.0128 28.92ZM96.3952 30.216C95.3392 30.216 94.4992 29.898 93.8752 29.262C93.2512 28.614 92.9392 27.624 92.9392 26.292V21.072H94.4512V26.13C94.4512 27.99 95.2132 28.92 96.7372 28.92C97.5172 28.92 98.1592 28.644 98.6632 28.092C99.1792 27.528 99.4372 26.73 99.4372 25.698V21.072H100.949V30H99.5812L99.4732 28.398C99.1972 28.962 98.7832 29.406 98.2312 29.73C97.6912 30.054 97.0792 30.216 96.3952 30.216ZM108.082 30.216C107.23 30.216 106.462 30.024 105.778 29.64C105.106 29.244 104.572 28.698 104.176 28.002C103.792 27.294 103.6 26.472 103.6 25.536C103.6 24.6 103.792 23.784 104.176 23.088C104.572 22.38 105.106 21.834 105.778 21.45C106.462 21.054 107.23 20.856 108.082 20.856C109.138 20.856 110.026 21.132 110.746 21.684C111.478 22.236 111.94 22.974 112.132 23.898H110.584C110.464 23.346 110.17 22.92 109.702 22.62C109.234 22.308 108.688 22.152 108.064 22.152C107.56 22.152 107.086 22.278 106.642 22.53C106.198 22.782 105.838 23.16 105.562 23.664C105.286 24.168 105.148 24.792 105.148 25.536C105.148 26.28 105.286 26.904 105.562 27.408C105.838 27.912 106.198 28.296 106.642 28.56C107.086 28.812 107.56 28.938 108.064 28.938C108.688 28.938 109.234 28.788 109.702 28.488C110.17 28.176 110.464 27.738 110.584 27.174H112.132C111.952 28.074 111.496 28.806 110.764 29.37C110.032 29.934 109.138 30.216 108.082 30.216ZM114.784 30V17.04H116.296V22.602C116.596 22.05 117.022 21.624 117.574 21.324C118.126 21.012 118.726 20.856 119.374 20.856C120.406 20.856 121.234 21.18 121.858 21.828C122.482 22.464 122.794 23.448 122.794 24.78V30H121.3V24.942C121.3 23.082 120.55 22.152 119.05 22.152C118.27 22.152 117.616 22.434 117.088 22.998C116.56 23.55 116.296 24.342 116.296 25.374V30H114.784Z" fill="#0C0C0C" fill-opacity="0.9"/>
</svg>
