<svg width="241" height="48" viewBox="0 0 241 48" fill="none" xmlns="http://www.w3.org/2000/svg">
<rect width="241" height="48" rx="23" fill="white"/>
<circle cx="24" cy="24" r="14" fill="#0C0C0C"/>
<path d="M22 19L26.6667 23.6667L22 28.3333" stroke="#FBFBFB" stroke-width="1.55439" stroke-linecap="round" stroke-linejoin="round"/>
<path d="M53.346 30.716C52.422 30.716 51.618 30.548 50.934 30.212C50.25 29.876 49.722 29.408 49.35 28.808C48.978 28.208 48.792 27.512 48.792 26.72H50.376C50.376 27.212 50.49 27.668 50.718 28.088C50.946 28.496 51.276 28.826 51.708 29.078C52.152 29.318 52.698 29.438 53.346 29.438C54.198 29.438 54.858 29.234 55.326 28.826C55.794 28.418 56.028 27.908 56.028 27.296C56.028 26.792 55.92 26.39 55.704 26.09C55.488 25.778 55.194 25.526 54.822 25.334C54.462 25.142 54.042 24.974 53.562 24.83C53.094 24.686 52.602 24.524 52.086 24.344C51.114 24.008 50.394 23.594 49.926 23.102C49.458 22.598 49.224 21.944 49.224 21.14C49.212 20.468 49.368 19.874 49.692 19.358C50.016 18.83 50.472 18.422 51.06 18.134C51.66 17.834 52.368 17.684 53.184 17.684C53.988 17.684 54.684 17.834 55.272 18.134C55.872 18.434 56.334 18.848 56.658 19.376C56.994 19.904 57.168 20.504 57.18 21.176H55.596C55.596 20.828 55.506 20.486 55.326 20.15C55.146 19.802 54.87 19.52 54.498 19.304C54.138 19.088 53.682 18.98 53.13 18.98C52.446 18.968 51.882 19.142 51.438 19.502C51.006 19.862 50.79 20.36 50.79 20.996C50.79 21.536 50.94 21.95 51.24 22.238C51.552 22.526 51.984 22.766 52.536 22.958C53.088 23.138 53.724 23.348 54.444 23.588C55.044 23.804 55.584 24.056 56.064 24.344C56.544 24.632 56.916 25.004 57.18 25.46C57.456 25.916 57.594 26.498 57.594 27.206C57.594 27.806 57.438 28.376 57.126 28.916C56.814 29.444 56.34 29.876 55.704 30.212C55.08 30.548 54.294 30.716 53.346 30.716ZM63.7163 30.5C62.9003 30.5 62.2583 30.302 61.7903 29.906C61.3223 29.51 61.0883 28.796 61.0883 27.764V22.85H59.5402V21.572H61.0883L61.2863 19.43H62.6003V21.572H65.2283V22.85H62.6003V27.764C62.6003 28.328 62.7143 28.712 62.9423 28.916C63.1703 29.108 63.5723 29.204 64.1483 29.204H65.0843V30.5H63.7163ZM70.6592 30.716C69.9152 30.716 69.2972 30.59 68.8052 30.338C68.3132 30.086 67.9472 29.75 67.7072 29.33C67.4672 28.91 67.3472 28.454 67.3472 27.962C67.3472 27.05 67.6952 26.348 68.3912 25.856C69.0872 25.364 70.0352 25.118 71.2352 25.118H73.6472V25.01C73.6472 24.23 73.4432 23.642 73.0352 23.246C72.6272 22.838 72.0812 22.634 71.3972 22.634C70.8092 22.634 70.2992 22.784 69.8672 23.084C69.4472 23.372 69.1832 23.798 69.0752 24.362H67.5272C67.5872 23.714 67.8032 23.168 68.1752 22.724C68.5592 22.28 69.0332 21.944 69.5972 21.716C70.1612 21.476 70.7612 21.356 71.3972 21.356C72.6452 21.356 73.5812 21.692 74.2052 22.364C74.8412 23.024 75.1592 23.906 75.1592 25.01V30.5H73.8092L73.7192 28.898C73.4672 29.402 73.0952 29.834 72.6032 30.194C72.1232 30.542 71.4752 30.716 70.6592 30.716ZM70.8932 29.438C71.4692 29.438 71.9612 29.288 72.3692 28.988C72.7892 28.688 73.1072 28.298 73.3232 27.818C73.5392 27.338 73.6472 26.834 73.6472 26.306V26.288H71.3612C70.4732 26.288 69.8432 26.444 69.4712 26.756C69.1112 27.056 68.9312 27.434 68.9312 27.89C68.9312 28.358 69.0992 28.736 69.4352 29.024C69.7832 29.3 70.2692 29.438 70.8932 29.438ZM77.9675 30.5V21.572H79.3355L79.4615 23.282C79.7375 22.694 80.1575 22.226 80.7215 21.878C81.2855 21.53 81.9815 21.356 82.8095 21.356V22.94H82.3955C81.8675 22.94 81.3815 23.036 80.9375 23.228C80.4935 23.408 80.1395 23.72 79.8755 24.164C79.6115 24.608 79.4795 25.22 79.4795 26V30.5H77.9675ZM88.5745 30.5C87.7585 30.5 87.1165 30.302 86.6485 29.906C86.1805 29.51 85.9465 28.796 85.9465 27.764V22.85H84.3985V21.572H85.9465L86.1445 19.43H87.4585V21.572H90.0865V22.85H87.4585V27.764C87.4585 28.328 87.5725 28.712 87.8005 28.916C88.0285 29.108 88.4305 29.204 89.0065 29.204H89.9425V30.5H88.5745ZM98.8231 34.46L101.037 29.636H100.515L96.9691 21.572H98.6071L101.559 28.52L104.691 21.572H106.257L100.407 34.46H98.8231ZM111.617 30.716C110.777 30.716 110.021 30.524 109.349 30.14C108.677 29.756 108.143 29.216 107.747 28.52C107.363 27.812 107.171 26.984 107.171 26.036C107.171 25.088 107.369 24.266 107.765 23.57C108.161 22.862 108.695 22.316 109.367 21.932C110.051 21.548 110.813 21.356 111.653 21.356C112.493 21.356 113.249 21.548 113.921 21.932C114.593 22.316 115.121 22.862 115.505 23.57C115.901 24.266 116.099 25.088 116.099 26.036C116.099 26.984 115.901 27.812 115.505 28.52C115.109 29.216 114.569 29.756 113.885 30.14C113.213 30.524 112.457 30.716 111.617 30.716ZM111.617 29.42C112.133 29.42 112.613 29.294 113.057 29.042C113.501 28.79 113.861 28.412 114.137 27.908C114.413 27.404 114.551 26.78 114.551 26.036C114.551 25.292 114.413 24.668 114.137 24.164C113.873 23.66 113.519 23.282 113.075 23.03C112.631 22.778 112.157 22.652 111.653 22.652C111.137 22.652 110.657 22.778 110.213 23.03C109.769 23.282 109.409 23.66 109.133 24.164C108.857 24.668 108.719 25.292 108.719 26.036C108.719 26.78 108.857 27.404 109.133 27.908C109.409 28.412 109.763 28.79 110.195 29.042C110.639 29.294 111.113 29.42 111.617 29.42ZM122 30.716C120.944 30.716 120.104 30.398 119.48 29.762C118.856 29.114 118.544 28.124 118.544 26.792V21.572H120.056V26.63C120.056 28.49 120.818 29.42 122.342 29.42C123.122 29.42 123.764 29.144 124.268 28.592C124.784 28.028 125.042 27.23 125.042 26.198V21.572H126.554V30.5H125.186L125.078 28.898C124.802 29.462 124.388 29.906 123.836 30.23C123.296 30.554 122.684 30.716 122 30.716ZM129.582 30.5V21.572H130.95L131.076 23.282C131.352 22.694 131.772 22.226 132.336 21.878C132.9 21.53 133.596 21.356 134.424 21.356V22.94H134.01C133.482 22.94 132.996 23.036 132.552 23.228C132.108 23.408 131.754 23.72 131.49 24.164C131.226 24.608 131.094 25.22 131.094 26V30.5H129.582ZM142.055 30.5V17.9H149.723V19.142H143.567V23.57H148.805V24.794H143.567V30.5H142.055ZM152.12 30.5V21.572H153.488L153.614 23.282C153.89 22.694 154.31 22.226 154.874 21.878C155.438 21.53 156.134 21.356 156.962 21.356V22.94H156.548C156.02 22.94 155.534 23.036 155.09 23.228C154.646 23.408 154.292 23.72 154.028 24.164C153.764 24.608 153.632 25.22 153.632 26V30.5H152.12ZM162.88 30.716C162.028 30.716 161.272 30.524 160.612 30.14C159.952 29.744 159.43 29.198 159.046 28.502C158.674 27.806 158.488 26.984 158.488 26.036C158.488 25.1 158.674 24.284 159.046 23.588C159.418 22.88 159.934 22.334 160.594 21.95C161.266 21.554 162.04 21.356 162.916 21.356C163.78 21.356 164.524 21.554 165.148 21.95C165.784 22.334 166.27 22.844 166.606 23.48C166.942 24.116 167.11 24.8 167.11 25.532C167.11 25.664 167.104 25.796 167.092 25.928C167.092 26.06 167.092 26.21 167.092 26.378H159.982C160.018 27.062 160.174 27.632 160.45 28.088C160.738 28.532 161.092 28.868 161.512 29.096C161.944 29.324 162.4 29.438 162.88 29.438C163.504 29.438 164.026 29.294 164.446 29.006C164.866 28.718 165.172 28.328 165.364 27.836H166.858C166.618 28.664 166.156 29.354 165.472 29.906C164.8 30.446 163.936 30.716 162.88 30.716ZM162.88 22.634C162.16 22.634 161.518 22.856 160.954 23.3C160.402 23.732 160.084 24.368 160 25.208H165.616C165.58 24.404 165.304 23.774 164.788 23.318C164.272 22.862 163.636 22.634 162.88 22.634ZM173.668 30.716C172.816 30.716 172.06 30.524 171.4 30.14C170.74 29.744 170.218 29.198 169.834 28.502C169.462 27.806 169.276 26.984 169.276 26.036C169.276 25.1 169.462 24.284 169.834 23.588C170.206 22.88 170.722 22.334 171.382 21.95C172.054 21.554 172.828 21.356 173.704 21.356C174.568 21.356 175.312 21.554 175.936 21.95C176.572 22.334 177.058 22.844 177.394 23.48C177.73 24.116 177.898 24.8 177.898 25.532C177.898 25.664 177.892 25.796 177.88 25.928C177.88 26.06 177.88 26.21 177.88 26.378H170.77C170.806 27.062 170.962 27.632 171.238 28.088C171.526 28.532 171.88 28.868 172.3 29.096C172.732 29.324 173.188 29.438 173.668 29.438C174.292 29.438 174.814 29.294 175.234 29.006C175.654 28.718 175.96 28.328 176.152 27.836H177.646C177.406 28.664 176.944 29.354 176.26 29.906C175.588 30.446 174.724 30.716 173.668 30.716ZM173.668 22.634C172.948 22.634 172.306 22.856 171.742 23.3C171.19 23.732 170.872 24.368 170.788 25.208H176.404C176.368 24.404 176.092 23.774 175.576 23.318C175.06 22.862 174.424 22.634 173.668 22.634ZM188.787 30.5V19.142H185.025V17.9H194.061V19.142H190.299V30.5H188.787ZM195.338 30.5V21.572H196.706L196.832 23.282C197.108 22.694 197.528 22.226 198.092 21.878C198.656 21.53 199.352 21.356 200.18 21.356V22.94H199.766C199.238 22.94 198.752 23.036 198.308 23.228C197.864 23.408 197.51 23.72 197.246 24.164C196.982 24.608 196.85 25.22 196.85 26V30.5H195.338ZM203.335 19.592C203.035 19.592 202.783 19.496 202.579 19.304C202.387 19.1 202.291 18.848 202.291 18.548C202.291 18.26 202.387 18.02 202.579 17.828C202.783 17.636 203.035 17.54 203.335 17.54C203.623 17.54 203.869 17.636 204.073 17.828C204.277 18.02 204.379 18.26 204.379 18.548C204.379 18.848 204.277 19.1 204.073 19.304C203.869 19.496 203.623 19.592 203.335 19.592ZM202.579 30.5V21.572H204.091V30.5H202.579ZM210.234 30.716C209.49 30.716 208.872 30.59 208.38 30.338C207.888 30.086 207.522 29.75 207.282 29.33C207.042 28.91 206.922 28.454 206.922 27.962C206.922 27.05 207.27 26.348 207.966 25.856C208.662 25.364 209.61 25.118 210.81 25.118H213.222V25.01C213.222 24.23 213.018 23.642 212.61 23.246C212.202 22.838 211.656 22.634 210.972 22.634C210.384 22.634 209.874 22.784 209.442 23.084C209.022 23.372 208.758 23.798 208.65 24.362H207.102C207.162 23.714 207.378 23.168 207.75 22.724C208.134 22.28 208.608 21.944 209.172 21.716C209.736 21.476 210.336 21.356 210.972 21.356C212.22 21.356 213.156 21.692 213.78 22.364C214.416 23.024 214.734 23.906 214.734 25.01V30.5H213.384L213.294 28.898C213.042 29.402 212.67 29.834 212.178 30.194C211.698 30.542 211.05 30.716 210.234 30.716ZM210.468 29.438C211.044 29.438 211.536 29.288 211.944 28.988C212.364 28.688 212.682 28.298 212.898 27.818C213.114 27.338 213.222 26.834 213.222 26.306V26.288H210.936C210.048 26.288 209.418 26.444 209.046 26.756C208.686 27.056 208.506 27.434 208.506 27.89C208.506 28.358 208.674 28.736 209.01 29.024C209.358 29.3 209.844 29.438 210.468 29.438ZM217.542 30.5V17.54H219.054V30.5H217.542Z" fill="#0C0C0C" fill-opacity="0.9"/>
</svg>
